<svg xmlns="http://www.w3.org/2000/svg" xmlns:xlink="http://www.w3.org/1999/xlink" preserveAspectRatio="xMidYMid meet">
 <defs>
  <path id="ciZDbuPHd" d="m839.89,-390.85c0,151.2 0,235.2 0,252c0,0 0,0 0,0c-469.2,0 -729.87,0 -782,0c0,0 0,0 0,0c0,-151.2 0,-235.2 0,-252c0,0 0,0 0,0c469.2,0 729.87,0 782,0c0,0 0,0 0,0z"/>
  <path id="a61VQeDpA0" d="m839.89,-390.85c0,151.2 0,235.2 0,252c0,0 0,0 0,0c-469.2,0 -729.87,0 -782,0c0,0 0,0 0,0c0,-151.2 0,-235.2 0,-252c0,0 0,0 0,0c469.2,0 729.87,0 782,0c0,0 0,0 0,0z"/>
  <path id="bf7VNHScA" d="m289.87,429.47c0,0 0,0 0,0c0,0 0,0 0,0"/>
  <path id="acVsVd19i" d="m289.87,429.47c0,0 0,0 0,0c0,0 0,0 0,0"/>
  <path id="b2qdnP0pik" d="m289.19,428.11l0,0"/>
  <path id="a2WtqtKdDS" d="m289.19,428.11l0,0"/>
  <path id="e28OC1kJV6" d="m328.51,443.35c0,0 47.61,-38.1 47.61,-38.1"/>
  <path id="a1sjXP4ZS5" d="m328.51,443.35c0,0 47.61,-38.1 47.61,-38.1"/>
  <path id="biFsO7Qhn" d="m382.62,412.3c0,0 -4.1,-8.2 -4.1,-8.2"/>
  <path id="ajb2jMQCp" d="m382.62,412.3c0,0 -4.1,-8.2 -4.1,-8.2"/>
  <path id="b1tJhS3tgt" d="m630.72,134.64c0,119.54 0,185.96 0,199.24c0,0 0,0 0,0c-370.97,0 -577.07,0 -618.29,0c0,0 0,0 0,0c0,-119.55 0,-185.96 0,-199.24c0,0 0,0 0,0c370.97,0 577.07,0 618.29,0c0,0 0,0 0,0z"/>
  <path id="a5oupnJ3Z3" d="m218.68,387.9c0,0 0,0 0,0c0,0 0,0 0,0"/>
  <path id="a3zI6KLJKA" d="m218.68,387.9c0,0 0,0 0,0c0,0 0,0 0,0"/>
  <path id="l6MVzljqh" d="m218.15,386.82l0,0"/>
  <path id="gd4aJn04s" d="m218.15,386.82l0,0"/>
  <path id="cP3LQbirW" d="m249.23,398.87c0,0 37.65,-30.12 37.65,-30.12"/>
  <path id="c1YbCevhuF" d="m249.23,398.87c0,0 37.65,-30.12 37.65,-30.12"/>
  <path id="b3iXzazYGE" d="m292.02,374.32c0,0 -3.25,-6.48 -3.25,-6.48"/>
  <path id="c4mBX3Y0oj" d="m292.02,374.32c0,0 -3.25,-6.48 -3.25,-6.48"/>
  <path id="byLqJjBaN" d="m511.98,143.09l30.12,1.08l6.99,2.69l-0.01,0.02l-0.04,0.05l-0.06,0.1l-0.07,0.13l-0.1,0.16l-0.12,0.19l-0.13,0.22l-0.15,0.24l-0.16,0.27l-0.18,0.29l-0.19,0.31l-0.2,0.33l-0.21,0.34l-0.22,0.36l-0.23,0.37l-0.23,0.38l-0.24,0.38l-0.25,0.39l-0.24,0.4l-0.25,0.39l-0.25,0.4l-0.25,0.39l-0.5,0.76l-0.24,0.38l-0.24,0.35l-0.23,0.35l-0.22,0.33l-0.21,0.32l-0.21,0.29l-0.19,0.27l-0.19,0.25l-0.16,0.23l-0.16,0.2l-0.14,0.16l-0.12,0.14l-0.1,0.1l-0.09,0.07l-0.06,0.03l-0.05,-0.02l0.04,0.05l0.05,0.06l0.05,0.08l0.07,0.1l0.07,0.11l0.09,0.13l0.08,0.14l0.1,0.16l0.1,0.17l0.11,0.18l0.22,0.38l0.24,0.42l0.26,0.44l0.12,0.23l0.52,0.92l0.13,0.22l0.12,0.23l0.13,0.22l0.12,0.22l0.11,0.2l0.11,0.21l0.11,0.19l0.2,0.36l0.09,0.16l0.08,0.15l0.08,0.14l0.06,0.12l0.06,0.11l0.05,0.08l0.04,0.08l0.03,0.05l0.02,0.04l54.32,24.2l9.15,7l1.07,10.21l0.7,6.07l-7.44,-7.44l-6.92,0l-34.59,4.94l4.94,7.91l19.77,0l16.8,3.95l7.89,-5.52l0.47,4.08l4.84,9.14l2.15,13.45l-1.61,12.91l0,10.75l0.03,0.05l0.04,0.06l0.06,0.07l0.07,0.1l0.09,0.12l0.1,0.13l0.11,0.14l0.12,0.16l0.12,0.18l0.14,0.18l0.3,0.4l0.16,0.21l0.16,0.22l0.51,0.69l0.18,0.23l0.17,0.24l0.17,0.23l0.18,0.23l0.16,0.23l0.17,0.22l0.16,0.22l0.15,0.21l0.15,0.2l0.14,0.2l0.13,0.18l0.13,0.17l0.11,0.16l0.1,0.14l0.09,0.12l0.08,0.11l0.06,0.09l0.05,0.07l0.03,0.05l0.01,0.03l0,0.01l-0.02,-0.02l0.03,0.04l0.03,0.07l0.04,0.1l0.04,0.12l0.04,0.13l0.05,0.16l0.04,0.18l0.05,0.19l0.04,0.21l0.05,0.22l0.05,0.24l0.05,0.25l0.1,0.52l0.15,0.84l0.2,1.16l0.04,0.29l0.1,0.56l0.08,0.54l0.08,0.5l0.03,0.23l0.04,0.23l0.03,0.2l0.03,0.19l0.02,0.18l0.02,0.15l0.02,0.13l0.02,0.12l0.01,0.09l0.02,0.12l-4.3,8.6l-12.91,13.99l0.54,10.22l-12.91,4.84l-15.6,3.23l-22.59,3.22l1.62,-11.83l-4.85,-4.84l-4,0.33l0,-15.4l-19.76,-20.75l-28.67,-11.86l-35.58,21.74l-5.93,18.78l5.18,14.39l-10.2,0.84l-8.61,3.22l-3.22,8.07l-261.94,3.23l0,-4.3l-2.15,-6.46l-0.76,0l-0.92,-0.01l-1.26,0l-1.57,-0.01l-1.86,-0.01l-2.14,-0.01l-1.13,-0.01l0,-22.89l-5.93,-15.82l-14.82,-14.82l-23.73,0l-27.67,3.95l-14.83,20.76l-4.12,28.07l-1.52,-0.03l-1.28,-0.04l-0.95,-0.03l-0.6,-0.03l-0.22,-0.04l0.01,0.05l-0.03,0.06l-0.07,0.08l-0.11,0.1l-0.15,0.11l-0.17,0.13l-0.45,0.3l-0.26,0.17l-0.29,0.18l-0.31,0.19l-0.33,0.19l-0.35,0.21l-0.36,0.21l-0.38,0.22l-0.39,0.22l-0.4,0.23l-1.23,0.69l-0.42,0.23l-0.41,0.23l-0.82,0.44l-0.4,0.22l-0.38,0.21l-0.38,0.2l-0.36,0.19l-0.34,0.19l-0.33,0.17l-0.3,0.16l-0.29,0.15l-0.25,0.14l-0.23,0.12l-0.2,0.11l-0.17,0.08l-0.14,0.08l-0.09,0.05l-0.07,0.03l-0.02,0.01l-9.14,1.08l-15.6,-3.77l-12.37,-6.45l-1.61,-20.44l-2.69,-13.45l0,-18.97l0.01,-0.19l0,-0.25l0.01,-0.31l0.01,-0.38l0.01,-0.43l0.01,-0.48l0.01,-0.53l0.02,-0.57l0.01,-0.61l0.01,-0.65l0.02,-0.67l0.01,-0.71l0.02,-0.73l0.01,-0.75l0.01,-0.77l0.02,-0.78l0.02,-1.58l0.02,-0.8l0.01,-0.79l0.01,-0.78l0,-0.78l0.01,-0.76l0.01,-0.74l0,-3.28l-0.01,-0.55l-0.01,-0.5l-0.01,-0.45l-0.01,-0.4l-0.02,-0.34l-0.02,-0.27l-0.03,-0.22l-0.02,-0.14l-0.03,-0.07l0.05,0.01l0.11,-0.02l0.15,-0.06l0.19,-0.1l0.24,-0.13l0.27,-0.15l0.31,-0.19l0.34,-0.21l0.37,-0.24l0.4,-0.26l0.42,-0.28l0.45,-0.29l0.47,-0.32l0.48,-0.33l0.5,-0.34l0.51,-0.35l0.52,-0.36l0.52,-0.37l1.06,-0.74l0.54,-0.38l0.52,-0.37l0.53,-0.37l0.51,-0.37l0.5,-0.36l0.49,-0.35l0.47,-0.34l0.46,-0.32l0.43,-0.31l0.41,-0.3l0.38,-0.27l0.35,-0.26l0.32,-0.23l0.29,-0.21l0.25,-0.18l0.21,-0.15l0.17,-0.12l0.2,-0.15l0.02,-0.02l23.13,-10.22l38.19,-9.14l54.32,-8.61l0.05,0l0.15,-0.01l0.24,-0.02l0.33,-0.03l0.41,-0.03l0.48,-0.04l0.56,-0.04l0.63,-0.05l0.69,-0.06l0.74,-0.06l0.79,-0.06l0.84,-0.07l0.88,-0.08l0.92,-0.07l0.95,-0.08l0.97,-0.08l0.99,-0.09l1.01,-0.08l1.01,-0.09l2.04,-0.18l1.01,-0.08l1.01,-0.09l0.98,-0.09l0.97,-0.09l0.93,-0.09l0.91,-0.09l0.87,-0.08l0.82,-0.08l0.78,-0.08l0.73,-0.08l0.67,-0.07l0.6,-0.07l0.54,-0.07l0.46,-0.06l0.39,-0.06l0.3,-0.05l0.21,-0.05l0.12,-0.04l0.02,-0.04l0.05,0.04l0.07,0.04l0.09,0.05l0.12,0.05l0.14,0.06l0.15,0.06l0.18,0.07l0.19,0.07l0.21,0.07l0.46,0.16l0.25,0.08l0.26,0.08l0.26,0.09l0.84,0.27l0.29,0.09l0.29,0.08l0.87,0.27l0.28,0.08l0.28,0.09l0.54,0.16l0.26,0.07l0.24,0.08l0.24,0.07l0.22,0.06l0.2,0.06l0.19,0.06l0.18,0.05l0.15,0.04l0.14,0.04l0.11,0.03l0.09,0.03l0.07,0.02l0.04,0.01l0.01,0l18.82,1.08l0.04,-0.04l0.03,-0.05l0.06,-0.06l0.06,-0.08l0.07,-0.1l0.09,-0.11l0.1,-0.12l0.11,-0.14l0.11,-0.15l0.12,-0.16l0.13,-0.16l0.28,-0.36l0.14,-0.2l0.15,-0.19l0.15,-0.2l0.16,-0.21l0.15,-0.2l0.15,-0.21l0.16,-0.21l0.3,-0.42l0.14,-0.21l0.28,-0.4l0.13,-0.2l0.12,-0.19l0.12,-0.18l0.2,-0.34l0.09,-0.15l0.08,-0.14l0.06,-0.14l0.05,-0.12l0.04,-0.1l0.03,-0.09l0.01,-0.08l-0.01,-0.06l-0.02,-0.04l0.08,0l0.18,-0.08l0.27,-0.15l0.35,-0.21l0.44,-0.27l0.51,-0.33l0.58,-0.39l0.65,-0.43l0.71,-0.48l0.76,-0.52l0.82,-0.56l0.86,-0.6l0.89,-0.62l0.94,-0.65l0.96,-0.68l0.99,-0.7l1.01,-0.71l1.02,-0.72l1.03,-0.74l1.04,-0.73l2.06,-1.48l1.02,-0.72l1.01,-0.72l0.98,-0.71l0.95,-0.68l0.92,-0.67l0.89,-0.63l0.85,-0.61l0.8,-0.58l0.74,-0.54l0.69,-0.49l0.63,-0.46l0.56,-0.4l0.49,-0.36l0.41,-0.29l0.33,-0.24l0.24,-0.18l0.15,-0.1l0.05,-0.04l30.66,-19.9l18.28,-9.14l15.06,-4.84l0.82,-0.08l19.24,-1.75l3.61,-0.33l41.95,-3.22l74.76,1.07l72.08,2.69zm-464.77,91.17l-16.32,7.32l16.32,11.41l21.74,-11.41l2.97,-9.35l-12.85,0l-11.86,2.03zm244.81,-79.36l-34.4,19.81l-23.76,17.82l-21.78,18.81l85.99,-4.12l160.54,-7.76l23.77,-6.93l13.86,-13.86l0,-10.9l-8.91,-7.92l-32.68,-8.91l-27.72,-3.96l-40.59,-1.98l-60.4,1.98l-33.92,7.92z"/>
  <path id="abaUhElF1" d="m511.98,143.09l30.12,1.08l6.99,2.69l-0.01,0.02l-0.04,0.05l-0.06,0.1l-0.07,0.13l-0.1,0.16l-0.12,0.19l-0.13,0.22l-0.15,0.24l-0.16,0.27l-0.18,0.29l-0.19,0.31l-0.2,0.33l-0.21,0.34l-0.22,0.36l-0.23,0.37l-0.23,0.38l-0.24,0.38l-0.25,0.39l-0.24,0.4l-0.25,0.39l-0.25,0.4l-0.25,0.39l-0.5,0.76l-0.24,0.38l-0.24,0.35l-0.23,0.35l-0.22,0.33l-0.21,0.32l-0.21,0.29l-0.19,0.27l-0.19,0.25l-0.16,0.23l-0.16,0.2l-0.14,0.16l-0.12,0.14l-0.1,0.1l-0.09,0.07l-0.06,0.03l-0.05,-0.02l0.04,0.05l0.05,0.06l0.05,0.08l0.07,0.1l0.07,0.11l0.09,0.13l0.08,0.14l0.1,0.16l0.1,0.17l0.11,0.18l0.22,0.38l0.24,0.42l0.26,0.44l0.12,0.23l0.52,0.92l0.13,0.22l0.12,0.23l0.13,0.22l0.12,0.22l0.11,0.2l0.11,0.21l0.11,0.19l0.2,0.36l0.09,0.16l0.08,0.15l0.08,0.14l0.06,0.12l0.06,0.11l0.05,0.08l0.04,0.08l0.03,0.05l0.02,0.04l54.32,24.2l9.15,7l1.07,10.21l0.7,6.07l-7.44,-7.44l-6.92,0l-34.59,4.94l4.94,7.91l19.77,0l16.8,3.95l7.89,-5.52l0.47,4.08l4.84,9.14l2.15,13.45l-1.61,12.91l0,10.75l0.03,0.05l0.04,0.06l0.06,0.07l0.07,0.1l0.09,0.12l0.1,0.13l0.11,0.14l0.12,0.16l0.12,0.18l0.14,0.18l0.3,0.4l0.16,0.21l0.16,0.22l0.51,0.69l0.18,0.23l0.17,0.24l0.17,0.23l0.18,0.23l0.16,0.23l0.17,0.22l0.16,0.22l0.15,0.21l0.15,0.2l0.14,0.2l0.13,0.18l0.13,0.17l0.11,0.16l0.1,0.14l0.09,0.12l0.08,0.11l0.06,0.09l0.05,0.07l0.03,0.05l0.01,0.03l0,0.01l-0.02,-0.02l0.03,0.04l0.03,0.07l0.04,0.1l0.04,0.12l0.04,0.13l0.05,0.16l0.04,0.18l0.05,0.19l0.04,0.21l0.05,0.22l0.05,0.24l0.05,0.25l0.1,0.52l0.15,0.84l0.2,1.16l0.04,0.29l0.1,0.56l0.08,0.54l0.08,0.5l0.03,0.23l0.04,0.23l0.03,0.2l0.03,0.19l0.02,0.18l0.02,0.15l0.02,0.13l0.02,0.12l0.01,0.09l0.02,0.12l-4.3,8.6l-12.91,13.99l0.54,10.22l-12.91,4.84l-15.6,3.23l-22.59,3.22l1.62,-11.83l-4.85,-4.84l-4,0.33l0,-15.4l-19.76,-20.75l-28.67,-11.86l-35.58,21.74l-5.93,18.78l5.18,14.39l-10.2,0.84l-8.61,3.22l-3.22,8.07l-261.94,3.23l0,-4.3l-2.15,-6.46l-0.76,0l-0.92,-0.01l-1.26,0l-1.57,-0.01l-1.86,-0.01l-2.14,-0.01l-1.13,-0.01l0,-22.89l-5.93,-15.82l-14.82,-14.82l-23.73,0l-27.67,3.95l-14.83,20.76l-4.12,28.07l-1.52,-0.03l-1.28,-0.04l-0.95,-0.03l-0.6,-0.03l-0.22,-0.04l0.01,0.05l-0.03,0.06l-0.07,0.08l-0.11,0.1l-0.15,0.11l-0.17,0.13l-0.45,0.3l-0.26,0.17l-0.29,0.18l-0.31,0.19l-0.33,0.19l-0.35,0.21l-0.36,0.21l-0.38,0.22l-0.39,0.22l-0.4,0.23l-1.23,0.69l-0.42,0.23l-0.41,0.23l-0.82,0.44l-0.4,0.22l-0.38,0.21l-0.38,0.2l-0.36,0.19l-0.34,0.19l-0.33,0.17l-0.3,0.16l-0.29,0.15l-0.25,0.14l-0.23,0.12l-0.2,0.11l-0.17,0.08l-0.14,0.08l-0.09,0.05l-0.07,0.03l-0.02,0.01l-9.14,1.08l-15.6,-3.77l-12.37,-6.45l-1.61,-20.44l-2.69,-13.45l0,-18.97l0.01,-0.19l0,-0.25l0.01,-0.31l0.01,-0.38l0.01,-0.43l0.01,-0.48l0.01,-0.53l0.02,-0.57l0.01,-0.61l0.01,-0.65l0.02,-0.67l0.01,-0.71l0.02,-0.73l0.01,-0.75l0.01,-0.77l0.02,-0.78l0.02,-1.58l0.02,-0.8l0.01,-0.79l0.01,-0.78l0,-0.78l0.01,-0.76l0.01,-0.74l0,-3.28l-0.01,-0.55l-0.01,-0.5l-0.01,-0.45l-0.01,-0.4l-0.02,-0.34l-0.02,-0.27l-0.03,-0.22l-0.02,-0.14l-0.03,-0.07l0.05,0.01l0.11,-0.02l0.15,-0.06l0.19,-0.1l0.24,-0.13l0.27,-0.15l0.31,-0.19l0.34,-0.21l0.37,-0.24l0.4,-0.26l0.42,-0.28l0.45,-0.29l0.47,-0.32l0.48,-0.33l0.5,-0.34l0.51,-0.35l0.52,-0.36l0.52,-0.37l1.06,-0.74l0.54,-0.38l0.52,-0.37l0.53,-0.37l0.51,-0.37l0.5,-0.36l0.49,-0.35l0.47,-0.34l0.46,-0.32l0.43,-0.31l0.41,-0.3l0.38,-0.27l0.35,-0.26l0.32,-0.23l0.29,-0.21l0.25,-0.18l0.21,-0.15l0.17,-0.12l0.2,-0.15l0.02,-0.02l23.13,-10.22l38.19,-9.14l54.32,-8.61l0.05,0l0.15,-0.01l0.24,-0.02l0.33,-0.03l0.41,-0.03l0.48,-0.04l0.56,-0.04l0.63,-0.05l0.69,-0.06l0.74,-0.06l0.79,-0.06l0.84,-0.07l0.88,-0.08l0.92,-0.07l0.95,-0.08l0.97,-0.08l0.99,-0.09l1.01,-0.08l1.01,-0.09l2.04,-0.18l1.01,-0.08l1.01,-0.09l0.98,-0.09l0.97,-0.09l0.93,-0.09l0.91,-0.09l0.87,-0.08l0.82,-0.08l0.78,-0.08l0.73,-0.08l0.67,-0.07l0.6,-0.07l0.54,-0.07l0.46,-0.06l0.39,-0.06l0.3,-0.05l0.21,-0.05l0.12,-0.04l0.02,-0.04l0.05,0.04l0.07,0.04l0.09,0.05l0.12,0.05l0.14,0.06l0.15,0.06l0.18,0.07l0.19,0.07l0.21,0.07l0.46,0.16l0.25,0.08l0.26,0.08l0.26,0.09l0.84,0.27l0.29,0.09l0.29,0.08l0.87,0.27l0.28,0.08l0.28,0.09l0.54,0.16l0.26,0.07l0.24,0.08l0.24,0.07l0.22,0.06l0.2,0.06l0.19,0.06l0.18,0.05l0.15,0.04l0.14,0.04l0.11,0.03l0.09,0.03l0.07,0.02l0.04,0.01l0.01,0l18.82,1.08l0.04,-0.04l0.03,-0.05l0.06,-0.06l0.06,-0.08l0.07,-0.1l0.09,-0.11l0.1,-0.12l0.11,-0.14l0.11,-0.15l0.12,-0.16l0.13,-0.16l0.28,-0.36l0.14,-0.2l0.15,-0.19l0.15,-0.2l0.16,-0.21l0.15,-0.2l0.15,-0.21l0.16,-0.21l0.3,-0.42l0.14,-0.21l0.28,-0.4l0.13,-0.2l0.12,-0.19l0.12,-0.18l0.2,-0.34l0.09,-0.15l0.08,-0.14l0.06,-0.14l0.05,-0.12l0.04,-0.1l0.03,-0.09l0.01,-0.08l-0.01,-0.06l-0.02,-0.04l0.08,0l0.18,-0.08l0.27,-0.15l0.35,-0.21l0.44,-0.27l0.51,-0.33l0.58,-0.39l0.65,-0.43l0.71,-0.48l0.76,-0.52l0.82,-0.56l0.86,-0.6l0.89,-0.62l0.94,-0.65l0.96,-0.68l0.99,-0.7l1.01,-0.71l1.02,-0.72l1.03,-0.74l1.04,-0.73l2.06,-1.48l1.02,-0.72l1.01,-0.72l0.98,-0.71l0.95,-0.68l0.92,-0.67l0.89,-0.63l0.85,-0.61l0.8,-0.58l0.74,-0.54l0.69,-0.49l0.63,-0.46l0.56,-0.4l0.49,-0.36l0.41,-0.29l0.33,-0.24l0.24,-0.18l0.15,-0.1l0.05,-0.04l30.66,-19.9l18.28,-9.14l15.06,-4.84l0.82,-0.08l19.24,-1.75l3.61,-0.33l41.95,-3.22l74.76,1.07l72.08,2.69zm-464.77,91.17l-16.32,7.32l16.32,11.41l21.74,-11.41l2.97,-9.35l-12.85,0l-11.86,2.03zm244.81,-79.36l-34.4,19.81l-23.76,17.82l-21.78,18.81l85.99,-4.12l160.54,-7.76l23.77,-6.93l13.86,-13.86l0,-10.9l-8.91,-7.92l-32.68,-8.91l-27.72,-3.96l-40.59,-1.98l-60.4,1.98l-33.92,7.92z"/>
 </defs>
 <g>
  <title>background</title>
  <rect fill="none" id="canvas_background" y="-1" x="-1"/>
 </g>
 <g>
  <title>Layer 1</title>
  <g id="svg_1">
   <g id="svg_2">
    <g id="svg_3">
     <use x="-17" y="-137" id="svg_4" fill-opacity="0" fill="#000000" xlink:href="#ciZDbuPHd"/>
     <g id="svg_5">
      <use x="-17" y="-137" id="svg_6" stroke-opacity="0" stroke="#000000" fill-opacity="0" xlink:href="#ciZDbuPHd"/>
     </g>
    </g>
    <g id="svg_7">
     <use x="-17" y="-137" id="svg_8" fill-opacity="0" fill="#000000" xlink:href="#a61VQeDpA0"/>
     <g id="svg_9">
      <use x="-17" y="-137" id="svg_10" stroke="#000000" fill-opacity="0" xlink:href="#a61VQeDpA0"/>
     </g>
    </g>
    <g id="svg_11">
     <use x="-17" y="-137" id="svg_12" fill-opacity="0" fill="#000000" xlink:href="#bf7VNHScA"/>
     <g id="svg_13">
      <use x="-17" y="-137" id="svg_14" stroke-opacity="0" stroke="#000000" fill-opacity="0" xlink:href="#bf7VNHScA"/>
     </g>
    </g>
    <g id="svg_15">
     <use x="-17" y="-137" id="svg_16" fill-opacity="0" fill="#000000" xlink:href="#acVsVd19i"/>
     <g id="svg_17">
      <use x="-17" y="-137" id="svg_18" stroke-opacity="0" stroke-width="0" stroke="#000000" fill-opacity="0" xlink:href="#acVsVd19i"/>
     </g>
    </g>
    <g id="svg_19">
     <use x="-17" y="-137" id="svg_20" fill-opacity="0" fill="#000000" xlink:href="#b2qdnP0pik"/>
     <g id="svg_21">
      <use x="-17" y="-137" id="svg_22" stroke-opacity="0" stroke="#000000" fill-opacity="0" xlink:href="#b2qdnP0pik"/>
     </g>
    </g>
    <g id="svg_23">
     <use x="-17" y="-137" id="svg_24" fill-opacity="0" fill="#000000" xlink:href="#a2WtqtKdDS"/>
     <g id="svg_25">
      <use x="-17" y="-137" id="svg_26" stroke-opacity="0" stroke-width="1.5" stroke="#000000" fill-opacity="0" xlink:href="#a2WtqtKdDS"/>
     </g>
    </g>
    <g id="svg_27">
     <use x="-17" y="-137" id="svg_28" fill-opacity="0.78" fill="#000000" xlink:href="#e28OC1kJV6"/>
     <g id="svg_29">
      <use x="-17" y="-137" id="svg_30" stroke-opacity="0" stroke="#000000" fill-opacity="0" xlink:href="#e28OC1kJV6"/>
     </g>
    </g>
    <g id="svg_31">
     <use x="-17" y="-137" id="svg_32" fill-opacity="0" fill="#000000" xlink:href="#a1sjXP4ZS5"/>
     <g id="svg_33">
      <use x="-17" y="-137" id="svg_34" stroke-opacity="0" stroke-width="1.5" stroke="#000000" fill-opacity="0" xlink:href="#a1sjXP4ZS5"/>
     </g>
    </g>
    <g id="svg_35">
     <use x="-17" y="-137" id="svg_36" fill="#000000" xlink:href="#biFsO7Qhn"/>
     <g id="svg_37">
      <use x="-17" y="-137" id="svg_38" stroke-opacity="0" stroke="#000000" fill-opacity="0" xlink:href="#biFsO7Qhn"/>
     </g>
    </g>
    <g id="svg_39">
     <use x="-17" y="-137" id="svg_40" fill-opacity="0" fill="#000000" xlink:href="#ajb2jMQCp"/>
     <g id="svg_41">
      <use x="-17" y="-137" id="svg_42" stroke-opacity="0" stroke-width="0" stroke="#000000" fill-opacity="0" xlink:href="#ajb2jMQCp"/>
     </g>
    </g>
    <g id="svg_43">
     <use x="-17" y="-137" id="svg_44" fill-opacity="0" fill="#000000" xlink:href="#b1tJhS3tgt"/>
     <g id="svg_45">
      <use x="-17" y="-137" id="svg_46" stroke-opacity="0" stroke="#000000" fill-opacity="0" xlink:href="#b1tJhS3tgt"/>
     </g>
    </g>
    <g id="svg_47">
     <use x="-17" y="-137" id="svg_48" fill-opacity="0" fill="#000000" xlink:href="#a5oupnJ3Z3"/>
     <g id="svg_49">
      <use x="-17" y="-137" id="svg_50" stroke-opacity="0" stroke="#000000" fill-opacity="0" xlink:href="#a5oupnJ3Z3"/>
     </g>
    </g>
    <g id="svg_51">
     <use x="-17" y="-137" id="svg_52" fill-opacity="0" fill="#000000" xlink:href="#a3zI6KLJKA"/>
     <g id="svg_53">
      <use x="-17" y="-137" id="svg_54" stroke-opacity="0" stroke-width="1.5" stroke="#000000" fill-opacity="0" xlink:href="#a3zI6KLJKA"/>
     </g>
    </g>
    <g id="svg_55">
     <use x="-17" y="-137" id="svg_56" fill-opacity="0" fill="#000000" xlink:href="#l6MVzljqh"/>
     <g id="svg_57">
      <use x="-17" y="-137" id="svg_58" stroke-opacity="0" stroke="#000000" fill-opacity="0" xlink:href="#l6MVzljqh"/>
     </g>
    </g>
    <g id="svg_59">
     <use x="-17" y="-137" id="svg_60" fill-opacity="0" fill="#000000" xlink:href="#gd4aJn04s"/>
     <g id="svg_61">
      <use x="-17" y="-137" id="svg_62" stroke-opacity="0" stroke-width="1.5" stroke="#000000" fill-opacity="0" xlink:href="#gd4aJn04s"/>
     </g>
    </g>
    <g id="svg_63">
     <use x="-17" y="-137" id="svg_64" fill-opacity="0.78" fill="#ffffff" xlink:href="#cP3LQbirW"/>
     <g id="svg_65">
      <use x="-17" y="-137" id="svg_66" stroke-opacity="0" stroke="#000000" fill-opacity="0" xlink:href="#cP3LQbirW"/>
     </g>
    </g>
    <g id="svg_67">
     <use x="-17" y="-137" id="svg_68" fill-opacity="0" fill="#000000" xlink:href="#c1YbCevhuF"/>
     <g id="svg_69">
      <use x="-17" y="-137" id="svg_70" stroke-opacity="0" stroke-width="1.5" stroke="#000000" fill-opacity="0" xlink:href="#c1YbCevhuF"/>
     </g>
    </g>
    <g id="svg_71">
     <use x="-17" y="-137" id="svg_72" fill="#000000" xlink:href="#b3iXzazYGE"/>
     <g id="svg_73">
      <use x="-17" y="-137" id="svg_74" stroke-opacity="0" stroke="#000000" fill-opacity="0" xlink:href="#b3iXzazYGE"/>
     </g>
    </g>
    <g id="svg_75">
     <use x="-17" y="-137" id="svg_76" fill-opacity="0" fill="#000000" xlink:href="#c4mBX3Y0oj"/>
     <g id="svg_77">
      <use x="-17" y="-137" id="svg_78" stroke-opacity="0" stroke-width="1.5" stroke="#000000" fill-opacity="0" xlink:href="#c4mBX3Y0oj"/>
     </g>
    </g>
    <g id="svg_79">
     <use x="-17" y="-137" id="svg_80" fill="#000000" xlink:href="#byLqJjBaN"/>
     <g id="svg_81">
      <use x="-17" y="-137" id="svg_82" stroke-opacity="0" stroke="#000000" fill-opacity="0" xlink:href="#byLqJjBaN"/>
     </g>
    </g>
    <g id="svg_83">
     <use x="-17" y="-137" id="svg_84" fill-opacity="0" fill="#000000" xlink:href="#abaUhElF1"/>
     <g id="svg_85">
      <use x="-17" y="-137" id="svg_86" stroke-opacity="0" stroke-width="1.5" stroke="none" fill-opacity="1" xlink:href="#abaUhElF1"/>
     </g>
    </g>
   </g>
  </g>
 </g>
</svg>